<svg width="128" height="128" viewBox="0 0 128 128" fill="none" xmlns="http://www.w3.org/2000/svg">
  <rect width="128" height="128" rx="28" fill="#5865F2"/>
  <path d="M44 44C52 38 60 36 64 36C68 36 76 38 84 44C89 54 91 64 90 76C82 83 74 87 64 88C54 87 46 83 38 76C37 64 39 54 44 44Z" fill="#FFFFFF"/>
  <circle cx="54" cy="62" r="5" fill="#5865F2"/>
  <circle cx="74" cy="62" r="5" fill="#5865F2"/>
  <path d="M50 74C55 77 60 78 64 78C68 78 73 77 78 74" stroke="#5865F2" stroke-width="5" stroke-linecap="round"/>
</svg>
