<svg xmlns="http://www.w3.org/2000/svg" viewBox="0 0 24 24" width="24" height="24" aria-label="Pinterest">
  <rect width="24" height="24" rx="6" fill="#E60023"/>
  <path fill="#fff" d="M12.2 5.5c-3.4 0-5.6 2.2-5.6 5.1 0 1.2.5 2.7 1.8 3.2.2.1.3 0 .4-.2l.2-.9c0-.1 0-.2-.1-.3-.4-.5-.7-1.1-.7-2 0-1.9 1.5-3.7 3.9-3.7 2.1 0 3.4 1.3 3.4 3.1 0 2.1-1 3.6-2.3 3.6-.7 0-1.2-.6-1.1-1.4.2-.9.6-1.8.6-2.5 0-.6-.3-1.1-1-1.1-.8 0-1.4.8-1.4 1.8 0 .7.2 1.1.2 1.1l-.8 3.3c-.2.8 0 2 .1 2.8.1.1.2.1.3 0 .2-.3.7-1.2.9-2l.3-1.2c.3.6 1 1.1 1.9 1.1 2.5 0 4.3-2.3 4.3-5.2 0-2.8-2.3-4.7-5.3-4.7z"/>
</svg>