<svg width="64" height="64" viewBox="0 0 64 64" fill="none" xmlns="http://www.w3.org/2000/svg">
  <rect width="64" height="64" rx="14" fill="#000000"/>
  <path d="M37.197 14C38.294 18.752 41.11 22.303 45.462 24.488C47.55 25.537 49.725 26.064 52 26.137V32.926C48.993 32.658 46.167 31.865 43.522 30.546C42.38 29.977 41.287 29.329 40.243 28.6L40.236 41.628C40.236 44.735 39.278 47.576 37.363 50.149C35.1 53.189 32.084 55.123 28.315 55.949C27.031 56.23 25.736 56.35 24.429 56.31C22.365 56.247 20.402 55.813 18.539 55.009C15.454 53.678 13.016 51.517 11.225 48.527C10.152 46.735 9.484 44.8 9.221 42.722C9.134 42.035 9.089 41.347 9.086 40.659C9.078 39.394 9.228 38.146 9.535 36.914C10.268 33.975 11.808 31.52 14.154 29.549C16.905 27.237 20.056 25.844 23.606 25.37C24.891 25.198 26.179 25.166 27.47 25.275V32.258C27.332 32.241 27.195 32.225 27.058 32.211C24.794 31.985 22.637 32.332 20.586 33.252C19.2 33.874 17.981 34.752 16.928 35.887C15.509 37.419 14.593 39.221 14.181 41.293C14.054 41.93 13.985 42.573 13.974 43.223C13.93 45.775 14.757 48.018 16.455 49.95C18.276 52.022 20.568 53.177 23.331 53.416C24.159 53.487 24.981 53.452 25.798 53.31C28.238 52.884 30.236 51.714 31.791 49.801C33.367 47.86 34.155 45.631 34.154 43.114L34.161 14H37.197Z" fill="#25F4EE"/>
  <path d="M39.574 14C40.671 18.752 43.487 22.303 47.839 24.488C49.927 25.537 52.102 26.064 54.377 26.137V32.926C51.37 32.658 48.544 31.865 45.899 30.546C44.757 29.977 43.664 29.329 42.62 28.6L42.613 41.628C42.613 44.735 41.655 47.576 39.74 50.149C37.477 53.189 34.461 55.123 30.692 55.949C29.408 56.23 28.113 56.35 26.806 56.31C24.742 56.247 22.779 55.813 20.916 55.009C17.831 53.678 15.393 51.517 13.602 48.527C12.529 46.735 11.861 44.8 11.598 42.722C11.511 42.035 11.466 41.347 11.463 40.659C11.455 39.394 11.605 38.146 11.912 36.914C12.645 33.975 14.185 31.52 16.531 29.549C19.282 27.237 22.433 25.844 25.983 25.37C27.268 25.198 28.556 25.166 29.847 25.275V32.258C29.709 32.241 29.572 32.225 29.435 32.211C27.171 31.985 25.014 32.332 22.963 33.252C21.577 33.874 20.358 34.752 19.305 35.887C17.886 37.419 16.97 39.221 16.558 41.293C16.431 41.93 16.362 42.573 16.351 43.223C16.307 45.775 17.134 48.018 18.832 49.95C20.653 52.022 22.945 53.177 25.708 53.416C26.536 53.487 27.358 53.452 28.175 53.31C30.615 52.884 32.613 51.714 34.168 49.801C35.744 47.86 36.532 45.631 36.531 43.114L36.538 14H39.574Z" fill="#FE2C55"/>
  <path d="M38.385 14C39.482 18.752 42.298 22.303 46.65 24.488C48.738 25.537 50.913 26.064 53.188 26.137V32.926C50.181 32.658 47.355 31.865 44.71 30.546C43.568 29.977 42.475 29.329 41.431 28.6L41.424 41.628C41.424 44.735 40.466 47.576 38.551 50.149C36.288 53.189 33.272 55.123 29.503 55.949C28.219 56.23 26.924 56.35 25.617 56.31C23.553 56.247 21.59 55.813 19.727 55.009C16.642 53.678 14.204 51.517 12.413 48.527C11.34 46.735 10.672 44.8 10.409 42.722C10.322 42.035 10.277 41.347 10.274 40.659C10.266 39.394 10.416 38.146 10.723 36.914C11.456 33.975 12.996 31.52 15.342 29.549C18.093 27.237 21.244 25.844 24.794 25.37C26.079 25.198 27.367 25.166 28.658 25.275V32.258C28.52 32.241 28.383 32.225 28.246 32.211C25.982 31.985 23.825 32.332 21.774 33.252C20.388 33.874 19.169 34.752 18.116 35.887C16.697 37.419 15.781 39.221 15.369 41.293C15.242 41.93 15.173 42.573 15.162 43.223C15.118 45.775 15.945 48.018 17.643 49.95C19.464 52.022 21.756 53.177 24.519 53.416C25.347 53.487 26.169 53.452 26.986 53.31C29.426 52.884 31.424 51.714 32.979 49.801C34.555 47.86 35.343 45.631 35.342 43.114L35.349 14H38.385Z" fill="white"/>
</svg>